<svg width="1500" height="1500" viewBox="0 0 1500 1500" fill="none" xmlns="http://www.w3.org/2000/svg">
<path d="M597.048 1142.15L565.865 1110.32L564.937 1109.07L560.253 1102.79L536.7 1071.22" stroke="#66CB28" stroke-opacity="0.5" stroke-width="1.09929" stroke-linecap="round" stroke-linejoin="round"/>
<path d="M885.627 1257.83L842.616 1256.81L801.442 1241.98L762.798 1226.34L726.256 1208.95L695.048 1185.12L671.503 1155.87L671.267 1141.11L667.91 1124.9L647.894 1103.16L645.068 1100.1L608.829 1081.92L565.954 1062.01L529.617 1035.94L515.623 1004.61" stroke="#66CB28" stroke-opacity="0.5" stroke-width="1.09929" stroke-linecap="round" stroke-linejoin="round"/>
<path d="M1138.97 926.676L1120.83 964.619L1096.03 999.821L1074.99 1030.54L1063.39 1059.48L1060 1089.52L1058.58 1119.82" stroke="#66CB28" stroke-opacity="0.5" stroke-width="1.09929" stroke-linecap="round" stroke-linejoin="round"/>
<path d="M646.181 1130.77L609.113 1111.52L566.572 1089.36L566.358 1089.26L535.015 1061.91L530.868 1058.28L530.104 1056.13L529.792 1054.74L526.66 1046.01L517.459 1020.44L515.571 1013.33" stroke="#66CB28" stroke-opacity="0.5" stroke-width="1.09929" stroke-linecap="round" stroke-linejoin="round"/>
<path d="M766.132 875.425L760.153 837.154L749.077 786.454L736.033 727.843L727.405 678.783L722.612 643.41L722.318 627.7" stroke="#66CB28" stroke-opacity="0.5" stroke-width="1.09929" stroke-linecap="round" stroke-linejoin="round"/>
<path d="M910.91 747.644L911.761 748.061L945.495 764.379L981.519 775.871L989.251 782.263L1020.91 790.901L1030.39 793.494L1043.41 803.817L1054.27 823.376L1060.04 853.741L1057.78 894.003L1045.34 940.013L1021.66 984.6L993.363 1020.13L954.999 1015.07L917.606 1010.07L880.449 1005.02L842.894 999.685L808.435 993.875L779.02 988.67L747.899 983.767L714.157 978.583L684.141 973.538L655.967 968.595L623.877 963.118L587.995 956.968L568.283 971.65L551.82 987.997L539.757 1004.93L532.418 1021.26L529.617 1035.94L529.737 1048.41L564.748 1075.69L566.278 1076.88L567.083 1077.26L609.893 1097.76L647.079 1116.17L649.708 1118.89L671.268 1141.11L674.545 1144.2L697.828 1166.24L734.123 1181.15L770.73 1194.84L807.18 1213.89L847.792 1233.95L891.857 1239.68L933.92 1232.89L972.018 1219.55L981.069 1199.88L1015.9 1185.4L1025.15 1162.21L1026.49 1128.17L1022.01 1090.04L1021.5 1055.81L1034.75 1025.59L1061.6 992.195L1089.25 951.407L1104.51 908.297L1108.39 869.242L1102.71 838.541L1090.21 817.981L1043.41 803.817L997.79 793.496L989.251 782.263L949.872 772.225L946.083 770.659L912.721 756.792L910.91 747.644ZM910.91 747.644L908.615 745.536L875.19 714.573L874.787 714.202L875.163 700.826L830.071 660.205L776.05 637.883L722.612 643.409L675.242 666.526L640.793 706.568L628.062 762.726L637.153 784.47L650.445 812.32L669.145 845.168L686.782 875.853L678.259 895.995L684.014 912.333L680.649 925.06L667.654 936.047L647.32 948.051L608.869 944.603L573.93 942.455L558.914 944.037L552.302 948.726L546.225 953.719L545.671 961.642L533.879 972.536L524.692 983.708L518.557 994.593L532.418 1021.26L567.53 1044.34L608.58 1062.91L643.368 1080.32L665.932 1103.24L700.2 1120.49L744.537 1126.03L783.393 1133.19L818.858 1150.4L859.666 1171.2L905.253 1181.29L949.301 1180.29L989.33 1173.01L1025.15 1162.21L1053.18 1146.02L1058.58 1119.82L1078.3 1105.08L1086.13 1082.88L1096.63 1071.06L1106.02 1052.87L1114.68 1033L1115.52 1030.91L1115.6 1030.67L1115.73 1030.36L1115.93 1029.84L1116.23 1029.1L1116.62 1028.14L1119.04 1026.9L1119.66 1020.5L1120.11 1019.39L1120.63 1018.06L1121.33 1016.37L1122.25 1014.03L1123.04 1012.04L1123.57 1010.65L1125.7 1005.06L1129.23 995.773L1131.25 990.473L1131.34 990.206L1131.42 990.041L1136.02 979.396L1141.64 966.321L1149.42 948.227L1157.91 918.977L1158.3 893.262L1152.11 872.801L1146.79 864.577L1141.11 855.795L1130.97 840.118L1115.54 826.865L1108.74 823.58L1087.36 813.289L1074.06 806.885L1058.68 801.799L1046.89 796.901L1028.24 786.521L1007.98 773.465L1006.55 772.441L1003.89 770.439L977.621 750.813L977.098 750.424L945.028 730.857L911.66 711.44L910.899 711L875.539 686.576L874.933 686.158L873.816 685.388L854.801 672.455L850.058 668.461L830.566 652.081L830.44 651.976L795.062 635.9L777.124 627.757L722.318 627.699L672.468 647.665L657.256 664.328L635.712 687.926L640.793 706.568L650.062 735.393L664.892 773.719L685.988 818.896L704.813 859.061L716.472 890.06L719.756 913.509L716.58 933.598L703.795 952.178L684.141 973.538L664.687 999.706L651.097 1028.48L644.665 1056.17L643.368 1080.32L645.068 1100.1L647.079 1116.17L646.181 1130.77L671.503 1155.87L667.52 1171.11L660.095 1186.68L650.951 1200.79L643.054 1210L640.354 1209.78L622.905 1173.15L597.048 1142.15L584.756 1127.85L565.865 1110.32L565.15 1106.43L565.765 1099.2L566.359 1089.25L566.278 1076.88L565.954 1062.01L567.53 1044.34L573.432 1024.16L584.732 1002.69L601.935 981.706L623.877 963.118L647.32 948.051L678.389 950.583L695.963 935.915L703.438 920.86L719.756 913.509L745.335 911.137L766.494 904.467L783.527 885.434L784.783 848.128L784.161 806.251L821.533 779.155L869.408 775.718L915.06 790.945L958.797 803.732L1005.27 812.878L1054.27 823.376L1102.71 838.541L1141.78 861.614L1145.12 891.145L1138.97 926.677L1149.42 948.227L1137.04 973.605L1135.05 978.454L1132.85 981.594L1132.02 983.053L1125.71 994.035L1118.39 1006.75L1104.28 1033.39L1093.98 1058.69L1086.13 1082.88L1060 1089.52L1022.01 1090.04L981.246 1087.23L943.199 1084.52L905.297 1080.03L868.222 1072.91L833.744 1064.73L800.82 1057.84L762.914 1054.75L717.643 1051.5L678.733 1041.86L651.097 1028.48L620.029 1015.87L584.732 1002.69L551.82 987.997L533.879 972.536" stroke="#66CB28" stroke-opacity="0.5" stroke-width="1.09929" stroke-linecap="round" stroke-linejoin="round"/>
<path d="M944.362 752.769L978.324 766.843L1012.03 782.385L1018.48 788.562L1028.23 791.773L1045.33 797.399L1048.24 798.018L1058.68 801.798L1058.83 801.872" stroke="#66CB28" stroke-opacity="0.5" stroke-width="1.09929" stroke-linecap="round" stroke-linejoin="round"/>
<path d="M1131.39 992.822L1128.28 1001.42L1125.28 1009.66L1123.85 1012.96L1119.04 1026.9" stroke="#66CB28" stroke-opacity="0.5" stroke-width="1.09929" stroke-linecap="round" stroke-linejoin="round"/>
<path d="M639.971 896.369L640.829 861.143L640.828 860.898L637.81 851.492" stroke="#66CB28" stroke-opacity="0.5" stroke-width="1.09929" stroke-linecap="round" stroke-linejoin="round"/>
<path d="M639.981 896.302L641.105 861.551L640.821 861.073L636.682 848.184L627.042 818.519L621.595 801.856" stroke="#66CB28" stroke-opacity="0.5" stroke-width="1.09929" stroke-linecap="round" stroke-linejoin="round"/>
<path d="M1130.85 995.353L1128.41 1001.84L1126.91 1005.88L1124 1013.12L1119.04 1026.9" stroke="#66CB28" stroke-opacity="0.5" stroke-width="1.09929" stroke-linecap="round" stroke-linejoin="round"/>
<path d="M993.363 1020.13L979.414 1050.59L981.246 1087.23L988.619 1132.02L989.33 1173.01L981.069 1199.88L941.672 1210.01L898.357 1213.26L853.521 1203.93L813.337 1181.43L778.312 1162.1L740.785 1152.83L699.317 1145.07L671.041 1126.91L667.911 1124.9L665.932 1103.24L669.142 1074.82L678.733 1041.86L694.553 1008.3L714.157 978.583L730.843 954.301L739.682 932.155L745.335 911.137L744.229 886.261L734.652 851.668L717.675 804.462L697.797 749.127L683.728 701.665L675.242 666.525L672.468 647.665" stroke="#66CB28" stroke-opacity="0.5" stroke-width="1.09929" stroke-linecap="round" stroke-linejoin="round"/>
<path d="M1137.04 973.605L1134.8 978.21L1131.42 989.936L1131.33 990.187" stroke="#66CB28" stroke-opacity="0.5" stroke-width="1.09929" stroke-linecap="round" stroke-linejoin="round"/>
<path d="M1058.58 1119.82L1026.48 1128.17L988.619 1132.02L949.367 1134.27L907.543 1132.27L864.917 1123.16L826.196 1108.44L791.214 1096.76L751.732 1092.43L705.746 1088.53L669.141 1074.83L644.665 1056.17L611.709 1040.54L573.431 1024.16L539.757 1004.93L524.692 983.708" stroke="#66CB28" stroke-opacity="0.5" stroke-width="1.09929" stroke-linecap="round" stroke-linejoin="round"/>
<path d="M1129.23 995.773L1127.85 999.991L1123.85 1012.96L1119.04 1026.9" stroke="#66CB28" stroke-opacity="0.5" stroke-width="1.09929" stroke-linecap="round" stroke-linejoin="round"/>
<path d="M640.012 896.2L643.646 865.391L641.224 857.593L640.937 856.642L635.901 840.422L626.169 809.046L621.595 801.855" stroke="#66CB28" stroke-opacity="0.5" stroke-width="1.09929" stroke-linecap="round" stroke-linejoin="round"/>
<path d="M572.64 935.937L577.234 934.639L599.848 928.331L601.524 927.867L602.934 927.803L643.734 925.751L680.648 925.061L703.438 920.861" stroke="#66CB28" stroke-opacity="0.5" stroke-width="1.09929" stroke-linecap="round" stroke-linejoin="round"/>
<path d="M1006.54 772.442L1007.98 773.466L1014.95 779.156" stroke="#66CB28" stroke-opacity="0.5" stroke-width="1.09929" stroke-linecap="round" stroke-linejoin="round"/>
<path d="M686.781 875.853L704.812 859.062L734.651 851.669L760.152 837.154L784.159 806.252L781.45 757.551L777.909 705.81L776.419 665.492L776.049 637.884L777.123 627.758" stroke="#66CB28" stroke-opacity="0.5" stroke-width="1.09929" stroke-linecap="round" stroke-linejoin="round"/>
<path d="M678.258 895.996L666.214 876.077L652.328 854.813L650.444 812.321L664.891 773.719L697.796 749.129L736.032 727.844L777.909 705.81L826.997 703.961L874.028 727.927" stroke="#66CB28" stroke-opacity="0.5" stroke-width="1.09929" stroke-linecap="round" stroke-linejoin="round"/>
<path d="M565.784 939.751L588.321 934.605L628.277 934.448L667.653 936.047L695.963 935.915L716.58 933.598L739.682 932.156L762.336 929.793L781.372 921.038L809.803 910.086L853.819 906.333L902.825 912.649L950.097 921.469L997.758 930.256L1045.34 940.012L1089.25 951.407L1120.83 964.62L1134.8 978.209" stroke="#66CB28" stroke-opacity="0.5" stroke-width="1.09929" stroke-linecap="round" stroke-linejoin="round"/>
<path d="M1125.7 1005.06L1125.28 1006.44L1123.82 1012.92L1119.04 1026.9" stroke="#66CB28" stroke-opacity="0.5" stroke-width="1.09929" stroke-linecap="round" stroke-linejoin="round"/>
<path d="M617.652 757.078L615.568 736.669L615.453 735.497L618.025 730.152" stroke="#66CB28" stroke-opacity="0.5" stroke-width="1.09929" stroke-linecap="round" stroke-linejoin="round"/>
<path d="M874.029 727.927L872.223 748.734L869.408 775.719L865.41 810.486L860.07 854.798L853.819 906.335L847.717 957.683L842.894 999.687L839.031 1031.01L833.744 1064.73L826.196 1108.44L818.858 1150.4L813.337 1181.44L807.18 1213.89L801.442 1241.98L796.803 1262.39L793.947 1271.74" stroke="#66CB28" stroke-opacity="0.5" stroke-width="1.09929" stroke-linecap="round" stroke-linejoin="round"/>
<path d="M721.642 1272.49L701.675 1274.55L668.236 1251.03L666.223 1250.03L665.666 1249.51L663.391 1248.63L640.354 1209.78L627.596 1181.75L622.905 1173.15" stroke="#66CB28" stroke-opacity="0.5" stroke-width="1.09929" stroke-linecap="round" stroke-linejoin="round"/>
<path d="M703.437 920.861L699.261 901.261L686.781 875.853" stroke="#66CB28" stroke-opacity="0.5" stroke-width="1.09929" stroke-linecap="round" stroke-linejoin="round"/>
<path d="M1096.63 1071.06L1086.38 1086.93L1078.3 1105.08L1068.84 1123.78L1053.18 1146.02L1042.37 1164.49L1035.61 1169.83L1015.9 1185.4L1005.22 1201.42L975.621 1217.57L972.017 1219.55L962.974 1232.18L950.987 1237.25L926.19 1247.75L918.524 1253.58L903.51 1258.27L883.316 1264.55L879.744 1265.67" stroke="#66CB28" stroke-opacity="0.5" stroke-width="1.09929" stroke-linecap="round" stroke-linejoin="round"/>
<path d="M1042.37 1164.49L1029.56 1176.12L1023.78 1182.11L1012.52 1193.82L1005.22 1201.42L993.975 1210.31L989.642 1213.36L967.756 1228.8L962.975 1232.18" stroke="#66CB28" stroke-opacity="0.5" stroke-width="1.09929" stroke-linecap="round" stroke-linejoin="round"/>
<path d="M545.67 961.643L559.334 951.502L587.994 956.969L608.869 944.604L628.277 934.449L643.733 925.751L653.583 917.333L657.519 908.275L656.634 898.259L666.215 876.077L669.144 845.169L685.987 818.897L717.674 804.464L749.077 786.454L781.451 757.552L824.664 740.083L872.223 748.734L914.226 770.608L954.609 784.464L997.789 793.497L1005.27 812.879L1009.46 842.6L1007.62 882.923L997.758 930.258L978.939 977.296L954.998 1015.07L942.041 1046.07L943.198 1084.52L949.366 1134.27L949.301 1180.29L941.671 1210.01L933.919 1232.89L926.191 1247.75L885.627 1257.83L879.745 1265.67L843.701 1269.01L838.272 1269.52L796.802 1262.39L755.525 1253.52L718.262 1234.17L690.31 1203L695.048 1185.12L697.827 1166.24L699.316 1145.07L700.2 1120.49L705.745 1088.54L717.642 1051.5L733.591 1015.16L747.898 983.768L756.429 955.976L762.336 929.794L766.493 904.468L766.132 875.426L784.782 848.129L817.567 819.793L865.41 810.486L914.234 820.837L960.835 832.802L1009.46 842.6L1060.04 853.742L1108.39 869.243L1145.12 891.146L1157.91 918.978" stroke="#66CB28" stroke-opacity="0.5" stroke-width="1.09929" stroke-linecap="round" stroke-linejoin="round"/>
<path d="M533.878 972.535L540.944 958.893L546.224 953.719" stroke="#66CB28" stroke-opacity="0.5" stroke-width="1.09929" stroke-linecap="round" stroke-linejoin="round"/>
<path d="M1106.02 1052.87L1093.98 1058.69L1063.39 1059.48L1021.5 1055.81L979.413 1050.59L942.041 1046.07L906.361 1041.23L872.135 1036.12L839.031 1031.01L807.184 1024.92L773.582 1019.86L733.591 1015.16L694.552 1008.3L664.686 999.707L635.07 990.954L601.934 981.707L568.282 971.651L545.67 961.643" stroke="#66CB28" stroke-opacity="0.5" stroke-width="1.09929" stroke-linecap="round" stroke-linejoin="round"/>
<path d="M1122.25 1014.03L1119.04 1026.9L1115.52 1030.91" stroke="#66CB28" stroke-opacity="0.5" stroke-width="1.09929" stroke-linecap="round" stroke-linejoin="round"/>
<path d="M665.798 1249.32L672.984 1239.06L682.102 1222.15L690.311 1203L667.52 1171.11L642.065 1144.6L606.048 1123.6L565.764 1099.2L545.235 1078.25L533.416 1066.19L531.239 1059.14L531.088 1058.47L530.105 1056.13L526.279 1045.73L517.46 1020.44" stroke="#66CB28" stroke-opacity="0.5" stroke-width="1.09929" stroke-linecap="round" stroke-linejoin="round"/>
<path d="M656.634 898.258L653.128 887.961L649.671 878.809L647.32 869.637L644.238 860.432L643.577 857.906L634.678 824.214L634.006 821.651L633.976 821.366L632.16 803.411L628.4 766.17L628.061 762.726L620.282 745.595L615.797 736.036L618.025 730.152L635.982 682.52" stroke="#66CB28" stroke-opacity="0.5" stroke-width="1.09929" stroke-linecap="round" stroke-linejoin="round"/>
<path d="M1121.33 1016.37L1119.04 1026.9L1115.6 1030.67" stroke="#66CB28" stroke-opacity="0.5" stroke-width="1.09929" stroke-linecap="round" stroke-linejoin="round"/>
<path d="M1114.68 1033L1104.28 1033.39L1074.99 1030.55L1034.75 1025.59L993.362 1020.13" stroke="#66CB28" stroke-opacity="0.5" stroke-width="1.09929" stroke-linecap="round" stroke-linejoin="round"/>
<path d="M1120.63 1018.06L1119.04 1026.9L1115.73 1030.36" stroke="#66CB28" stroke-opacity="0.5" stroke-width="1.09929" stroke-linecap="round" stroke-linejoin="round"/>
<path d="M910.9 711L911.316 719.865L945.135 739.31L977.884 756.662L978.325 766.843L981.519 775.871L985.411 777.206L1018.48 788.562L1030.39 793.494L1053.53 800.584L1061.54 803.04L1062.04 803.198L1074.08 806.887L1090.22 817.981L1130.97 840.118L1141.78 861.614L1148.14 873.783L1158.3 893.262" stroke="#66CB28" stroke-opacity="0.5" stroke-width="1.09929" stroke-linecap="round" stroke-linejoin="round"/>
<path d="M945.028 730.857L945.135 739.311L944.362 752.77" stroke="#66CB28" stroke-opacity="0.5" stroke-width="1.09929" stroke-linecap="round" stroke-linejoin="round"/>
<path d="M558.914 944.037L565.784 939.751L572.641 935.936L579.256 932.595L592.389 927.842L603.837 922.624L610.053 919.507L611.616 918.852L628.03 912.057L632.633 907.837L635.76 904.653L636.766 903.849L639.851 900.834L653.129 887.961L652.329 854.813L641.69 836.352L634.007 821.651L626.169 809.046L620.282 745.595L635.712 687.926L635.982 682.52L672.468 647.665" stroke="#66CB28" stroke-opacity="0.5" stroke-width="1.09929" stroke-linecap="round" stroke-linejoin="round"/>
<path d="M533.416 1066.19L531.087 1058.47L530.409 1056.45" stroke="#66CB28" stroke-opacity="0.5" stroke-width="1.09929" stroke-linecap="round" stroke-linejoin="round"/>
<path d="M622.905 1173.15L628.357 1167.62L635.681 1157.25L642.065 1144.6L646.181 1130.77" stroke="#66CB28" stroke-opacity="0.5" stroke-width="1.09929" stroke-linecap="round" stroke-linejoin="round"/>
<path d="M1120.11 1019.39L1119.04 1026.9L1115.93 1029.84" stroke="#66CB28" stroke-opacity="0.5" stroke-width="1.09929" stroke-linecap="round" stroke-linejoin="round"/>
<path d="M552.301 948.727L559.334 951.502L573.929 942.455L588.321 934.606L601.524 927.867L612.713 922L614.652 921.783L653.583 917.332L684.013 912.334L699.261 901.261L716.471 890.061L744.228 886.262L766.131 875.425" stroke="#66CB28" stroke-opacity="0.5" stroke-width="1.09929" stroke-linecap="round" stroke-linejoin="round"/>
<path d="M579.255 932.595L585.416 929.75L588.901 928.489L591.488 927.4L598.065 924.456L608.352 919.531L612.878 917.349L615.903 915.883L618.057 914.506L619.741 913.237L621.526 912.245L635.95 904.295L636.897 902.537L637.896 900.664L638.773 899.037L638.963 898.679L639.671 897.378L639.954 896.612L649.672 878.809L647.185 871.596L643.646 865.391L641.105 861.55L640.828 860.898L637.81 851.492L636.682 848.183L627.04 818.657L621.595 801.855L617.652 757.078L615.797 736.036L615.453 735.497L635.982 682.52L657.256 664.329" stroke="#66CB28" stroke-opacity="0.5" stroke-width="1.09929" stroke-linecap="round" stroke-linejoin="round"/>
<path d="M977.097 750.425L977.882 756.663L1009.06 775.876L1012.03 782.387L1039.66 794.047L1040.04 794.205L1048.24 798.02L1058.68 801.8" stroke="#66CB28" stroke-opacity="0.5" stroke-width="1.09929" stroke-linecap="round" stroke-linejoin="round"/>
<path d="M585.416 929.75L591.001 927.384" stroke="#66CB28" stroke-opacity="0.5" stroke-width="1.09929" stroke-linecap="round" stroke-linejoin="round"/>
<path d="M701.673 1274.55L704.627 1269.98L710.596 1255.55L718.261 1234.17L726.255 1208.95L734.122 1181.15L740.783 1152.83L744.536 1126.03L751.731 1092.43L762.913 1054.75L773.581 1019.86L779.018 988.67L779.6 955.908L781.371 921.038L783.525 885.434L813.333 863.577L860.069 854.797L910.412 862.316L958.482 873.051L1007.62 882.922L1057.78 894.003L1104.51 908.297L1138.96 926.677" stroke="#66CB28" stroke-opacity="0.5" stroke-width="1.09929" stroke-linecap="round" stroke-linejoin="round"/>
<path d="M665.534 1249.7L663.391 1248.63" stroke="#66CB28" stroke-opacity="0.5" stroke-width="1.09929" stroke-linecap="round" stroke-linejoin="round"/>
<path d="M748.703 1276.51L750.306 1271.83L755.526 1253.52L762.798 1226.34L770.73 1194.84L778.312 1162.1L783.393 1133.19L791.214 1096.76L800.82 1057.84L807.185 1024.91L808.434 993.875L808.084 955.416L809.803 910.087L813.334 863.577L817.567 819.792L821.532 779.155L824.665 740.082L826.997 703.961L828.952 678.36L830.071 660.205L830.44 651.976" stroke="#66CB28" stroke-opacity="0.5" stroke-width="1.09929" stroke-linecap="round" stroke-linejoin="round"/>
<path d="M1118.87 1022.49L1119.04 1026.9" stroke="#66CB28" stroke-opacity="0.5" stroke-width="1.09929" stroke-linecap="round" stroke-linejoin="round"/>
<path d="M1006.54 772.442L1009.06 775.876L1016.05 780.029L1038.8 793.524" stroke="#66CB28" stroke-opacity="0.5" stroke-width="1.09929" stroke-linecap="round" stroke-linejoin="round"/>
<path d="M873.815 685.388L874.968 689.385L875.452 689.803L877.645 691.635L911.315 719.865L910.684 734.675L910.909 747.644" stroke="#66CB28" stroke-opacity="0.5" stroke-width="1.09929" stroke-linecap="round" stroke-linejoin="round"/>
<path d="M1129.88 998.474L1128.51 1002.1L1128.3 1002.63L1124.17 1013.32L1119.04 1026.9" stroke="#66CB28" stroke-opacity="0.5" stroke-width="1.09929" stroke-linecap="round" stroke-linejoin="round"/>
<path d="M1118.47 1023.51L1119.04 1026.9" stroke="#66CB28" stroke-opacity="0.5" stroke-width="1.09929" stroke-linecap="round" stroke-linejoin="round"/>
<path d="M1118.01 1024.62L1119.04 1026.9" stroke="#66CB28" stroke-opacity="0.5" stroke-width="1.09929" stroke-linecap="round" stroke-linejoin="round"/>
<path d="M597.048 1142.15L598.073 1140.22L601.739 1133.57L606.048 1123.6L609.113 1111.52L609.893 1097.76L608.829 1081.92L608.579 1062.91L611.709 1040.54L620.028 1015.87L635.07 990.954L655.967 968.596L678.389 950.584L703.795 952.179L730.842 954.303L756.43 955.976L779.601 955.909L808.084 955.416L847.717 957.682L892.03 963.635L935.426 970.387L978.94 977.296L1021.66 984.6L1061.6 992.196L1096.03 999.822L1118.39 1006.75L1123.04 1012.04" stroke="#66CB28" stroke-opacity="0.5" stroke-width="1.09929" stroke-linecap="round" stroke-linejoin="round"/>
<path d="M1119.04 1026.9L1117.06 1027.01" stroke="#66CB28" stroke-opacity="0.5" stroke-width="1.09929" stroke-linecap="round" stroke-linejoin="round"/>
<path d="M1117.55 1025.8L1119.04 1026.9" stroke="#66CB28" stroke-opacity="0.5" stroke-width="1.09929" stroke-linecap="round" stroke-linejoin="round"/>
<path d="M1131.43 990.078L1131.5 990.929L1131.39 992.822L1130.85 995.353L1129.88 998.474L1128.5 1002.1L1128.51 1002.12L1123.69 1012.76L1119.04 1026.9" stroke="#66CB28" stroke-opacity="0.5" stroke-width="1.09929" stroke-linecap="round" stroke-linejoin="round"/>
<path d="M1131.35 990.243L1131.5 990.929L1128.08 1000.85L1123.66 1012.72L1119.04 1026.9" stroke="#66CB28" stroke-opacity="0.5" stroke-width="1.09929" stroke-linecap="round" stroke-linejoin="round"/>
<path d="M854.8 672.455L874.967 689.385L875.161 700.827L875.518 701.157L910.684 734.675L944.361 752.77L945.494 764.379L949.87 772.225L954.609 784.463L958.796 803.732L960.835 832.801L958.482 873.051L950.096 921.469L935.424 970.386L917.605 1010.07L906.36 1041.23L905.296 1080.03L907.541 1132.27L905.251 1181.29L898.355 1213.26L891.856 1239.68L885.626 1257.83" stroke="#66CB28" stroke-opacity="0.5" stroke-width="1.09929" stroke-linecap="round" stroke-linejoin="round"/>
<path d="M668.236 1251.03L665.798 1249.32L643.054 1210L627.597 1181.75" stroke="#66CB28" stroke-opacity="0.5" stroke-width="1.09929" stroke-linecap="round" stroke-linejoin="round"/>
<path d="M598.065 924.456L600.686 923.371L603.838 922.624L621.537 916.78L628.031 912.057L628.538 911.813L629.251 911.475L639.713 906.417L656.635 898.258" stroke="#66CB28" stroke-opacity="0.5" stroke-width="1.09929" stroke-linecap="round" stroke-linejoin="round"/>
<path d="M608.351 919.531L617.862 914.268L621.332 912.13L624.937 909.644L634.887 902.01L638.963 898.679" stroke="#66CB28" stroke-opacity="0.5" stroke-width="1.09929" stroke-linecap="round" stroke-linejoin="round"/>
<path d="M639.671 897.378L639.954 896.613L639.98 896.301L640.012 896.201L647.185 871.597L647.32 869.637L644.991 853.956L641.69 836.352L641.449 833.587L637.153 784.471L650.061 735.394L683.727 701.666L727.404 678.783L776.42 665.492L828.952 678.361L874.786 714.202L874.029 727.926L881.239 733.3L912.721 756.793L914.227 770.608L915.06 790.946L914.234 820.837L910.413 862.316L902.825 912.65L892.03 963.635L880.449 1005.02L872.136 1036.12L868.221 1072.91L864.916 1123.16L859.665 1171.2L853.52 1203.93L847.792 1233.95L842.616 1256.81L838.272 1269.52L835.083 1270.79L793.947 1271.74L767.047 1271.81L750.306 1271.84L710.597 1255.55L682.102 1222.15L660.095 1186.68L635.681 1157.25L601.739 1133.57L568.448 1108.88L565.15 1106.43L555.059 1093.92L553.148 1091.56L540.309 1075.68L536.7 1071.22L533.416 1066.19L531.435 1060.48L530.869 1058.28L529.737 1048.41L528.036 1044.19L522.7 1030.98L515.571 1013.33L515.623 1004.61L518.556 994.593" stroke="#66CB28" stroke-opacity="0.5" stroke-width="1.09929" stroke-linecap="round" stroke-linejoin="round"/>
<path d="M524.692 983.709L533.309 969.62L533.629 969.087L536.697 964.074L540.945 958.894" stroke="#66CB28" stroke-opacity="0.5" stroke-width="1.09929" stroke-linecap="round" stroke-linejoin="round"/>
<path d="M621.332 912.129L623.114 911.032L636.897 902.537" stroke="#66CB28" stroke-opacity="0.5" stroke-width="1.09929" stroke-linecap="round" stroke-linejoin="round"/>
<path d="M624.938 909.645L628.953 906.866L637.896 900.666" stroke="#66CB28" stroke-opacity="0.5" stroke-width="1.09929" stroke-linecap="round" stroke-linejoin="round"/>
<path d="M634.888 902.01L638.772 899.038" stroke="#66CB28" stroke-opacity="0.5" stroke-width="1.09929" stroke-linecap="round" stroke-linejoin="round"/>
<path d="M767.047 1271.81L756.677 1274.46L748.703 1276.51L721.642 1272.49L704.629 1269.98L672.984 1239.06L650.951 1200.79L628.358 1167.62L598.073 1140.21L584.756 1127.85" stroke="#66CB28" stroke-opacity="0.5" stroke-width="1.09929" stroke-linecap="round" stroke-linejoin="round"/>
<path d="M592.813 928.304L612.713 922L621.535 916.78L623.346 916.352L624.032 916.204L625.083 915.949L657.518 908.274L678.258 895.995" stroke="#66CB28" stroke-opacity="0.5" stroke-width="1.09929" stroke-linecap="round" stroke-linejoin="round"/>
<path d="M843.702 1269.01L839.896 1269.8L835.083 1270.79" stroke="#66CB28" stroke-opacity="0.5" stroke-width="1.09929" stroke-linecap="round" stroke-linejoin="round"/>
<path d="M950.988 1237.25L934.013 1245.78L924.78 1250.44L918.525 1253.58" stroke="#66CB28" stroke-opacity="0.5" stroke-width="1.09929" stroke-linecap="round" stroke-linejoin="round"/>
<path d="M1135.29 978.682L1131.41 989.988" stroke="#66CB28" stroke-opacity="0.5" stroke-width="1.09929" stroke-linecap="round" stroke-linejoin="round"/>
<path d="M565.864 1110.32L564.956 1108.93L561.52 1103.73L555.058 1093.91" stroke="#66CB28" stroke-opacity="0.5" stroke-width="1.09929" stroke-linecap="round" stroke-linejoin="round"/>
<path d="M1119.66 1020.5L1119.27 1021.51L1119.04 1026.9L1116.23 1029.1" stroke="#66CB28" stroke-opacity="0.5" stroke-width="1.09929" stroke-linecap="round" stroke-linejoin="round"/>
<path d="M1119.27 1021.51L1118.87 1022.49L1118.46 1023.51L1118.01 1024.62L1117.55 1025.8L1117.06 1027.01L1116.62 1028.14" stroke="#66CB28" stroke-opacity="0.5" stroke-width="1.09929" stroke-linecap="round" stroke-linejoin="round"/>
<path d="M618.249 914.76L632.633 907.837L635.552 905.008" stroke="#66CB28" stroke-opacity="0.5" stroke-width="1.09929" stroke-linecap="round" stroke-linejoin="round"/>
<g filter="url(#filter0_f_469_235)">
<circle cx="750" cy="750" r="350" fill="url(#paint0_linear_469_235)" fill-opacity="0.5"/>
</g>
<defs>
<filter id="filter0_f_469_235" x="0" y="0" width="1500" height="1500" filterUnits="userSpaceOnUse" color-interpolation-filters="sRGB">
<feFlood flood-opacity="0" result="BackgroundImageFix"/>
<feBlend mode="normal" in="SourceGraphic" in2="BackgroundImageFix" result="shape"/>
<feGaussianBlur stdDeviation="200" result="effect1_foregroundBlur_469_235"/>
</filter>
<linearGradient id="paint0_linear_469_235" x1="570.5" y1="588.5" x2="-55" y2="565" gradientUnits="userSpaceOnUse">
<stop stop-color="#66CB28"/>
<stop offset="1" stop-opacity="0"/>
</linearGradient>
</defs>
</svg>
