<svg width="127" height="37" viewBox="0 0 127 37" fill="none" xmlns="http://www.w3.org/2000/svg">
<path d="M15.6082 14.1502L14 16.7807L16.3206 20.5098L20.7091 28.0005L26.3515 28.0005L20.1998 17.5056L28.9767 0.000549316L23.5695 0.000549789L15.6082 14.1502Z" fill="#66CB28"/>
<path d="M13.3685 22.8498L14.9767 20.2193L12.6561 16.4902L8.26761 8.99948H2.62526L8.77699 19.4945L0 36.9995H5.40726L13.3685 22.8498Z" fill="#66CB28"/>
<path d="M55.6642 27.1875C55.6642 27.2708 55.6434 27.3438 55.6017 27.4062C55.5392 27.4688 55.4663 27.5 55.383 27.5C54.508 27.5 53.2059 27.5 51.4767 27.5C51.3934 27.5 51.3205 27.4688 51.258 27.4062C51.1955 27.3438 51.1642 27.2708 51.1642 27.1875C51.1642 24.6458 51.1642 20.8125 51.1642 15.6875C51.1642 15.5625 51.1017 15.4688 50.9767 15.4062C50.8517 15.3646 50.7476 15.3958 50.6642 15.5C49.7892 16.4375 48.4663 17.8646 46.6955 19.7812C46.0705 20.4479 45.1226 21.4688 43.8517 22.8438C43.7892 22.9062 43.7163 22.9375 43.633 22.9375C43.5497 22.9375 43.4767 22.9062 43.4142 22.8438C42.7892 22.1562 41.8413 21.1354 40.5705 19.7812C39.6955 18.8229 38.383 17.3958 36.633 15.5C36.5497 15.4167 36.4455 15.3958 36.3205 15.4375C36.1747 15.4792 36.1017 15.5729 36.1017 15.7188C36.1017 18.2604 36.1017 22.0833 36.1017 27.1875C36.1017 27.2708 36.0809 27.3438 36.0392 27.4062C35.9767 27.4688 35.9038 27.5 35.8205 27.5C34.9455 27.5 33.6434 27.5 31.9142 27.5C31.8309 27.5 31.758 27.4688 31.6955 27.4062C31.633 27.3438 31.6017 27.2708 31.6017 27.1875C31.6017 23.0625 31.6017 16.8646 31.6017 8.59375C31.6017 8.51042 31.633 8.4375 31.6955 8.375C31.758 8.33333 31.8309 8.3125 31.9142 8.3125C32.8101 8.3125 34.1538 8.3125 35.9455 8.3125C36.008 8.3125 36.0497 8.3125 36.0705 8.3125C36.1122 8.33333 36.1434 8.36458 36.1642 8.40625C37.3726 9.69792 38.5809 11 39.7892 12.3125C40.9976 13.6042 42.2059 14.9062 43.4142 16.2188C43.4767 16.2812 43.5497 16.3125 43.633 16.3125C43.7163 16.3125 43.7892 16.2812 43.8517 16.2188C45.0601 14.9062 46.2684 13.6042 47.4767 12.3125C48.6851 11 49.8934 9.69792 51.1017 8.40625C51.1226 8.36458 51.1538 8.33333 51.1955 8.3125C51.2372 8.3125 51.2788 8.3125 51.3205 8.3125C52.2163 8.3125 53.5705 8.3125 55.383 8.3125C55.4663 8.3125 55.5392 8.33333 55.6017 8.375C55.6434 8.4375 55.6642 8.51042 55.6642 8.59375C55.6642 11.6979 55.6642 14.8021 55.6642 17.9062C55.6642 21.0104 55.6642 24.1042 55.6642 27.1875ZM61.578 27.5C61.4947 27.5 61.4217 27.4688 61.3592 27.4062C61.2967 27.3438 61.2655 27.2708 61.2655 27.1875C61.2655 23.0625 61.2655 16.8646 61.2655 8.59375C61.2655 8.51042 61.2967 8.4375 61.3592 8.375C61.4217 8.33333 61.4947 8.3125 61.578 8.3125C62.453 8.3125 63.7551 8.3125 65.4842 8.3125C65.5676 8.3125 65.6405 8.33333 65.703 8.375C65.7655 8.4375 65.7967 8.51042 65.7967 8.59375C65.7967 12.7396 65.7967 18.9375 65.7967 27.1875C65.7967 27.2708 65.7655 27.3438 65.703 27.4062C65.6405 27.4688 65.5676 27.5 65.4842 27.5C64.8384 27.5 64.1926 27.5 63.5467 27.5C62.8801 27.5 62.2238 27.5 61.578 27.5ZM95.4292 27.1875C95.4292 27.2708 95.4084 27.3438 95.3667 27.4062C95.3042 27.4688 95.2313 27.5 95.148 27.5C94.2522 27.5 92.898 27.5 91.0855 27.5C91.0438 27.5 91.0126 27.4896 90.9917 27.4688C90.9501 27.4688 90.9188 27.4583 90.898 27.4375C87.6688 24.6042 82.8251 20.375 76.3667 14.75C76.2834 14.6667 76.1792 14.6458 76.0542 14.6875C75.9292 14.75 75.8667 14.8438 75.8667 14.9688C75.8667 17.6771 75.8667 21.75 75.8667 27.1875C75.8667 27.2708 75.8459 27.3438 75.8042 27.4062C75.7417 27.4688 75.6688 27.5 75.5855 27.5C74.7105 27.5 73.4084 27.5 71.6792 27.5C71.5959 27.5 71.523 27.4688 71.4605 27.4062C71.398 27.3438 71.3667 27.2708 71.3667 27.1875C71.3667 23.0625 71.3667 16.8646 71.3667 8.59375C71.3667 8.51042 71.398 8.4375 71.4605 8.375C71.523 8.33333 71.5959 8.3125 71.6792 8.3125C72.5751 8.3125 73.9292 8.3125 75.7417 8.3125C75.7834 8.3125 75.8147 8.3125 75.8355 8.3125C75.8772 8.33333 75.9084 8.35417 75.9292 8.375C78.3459 10.5 80.7626 12.6146 83.1792 14.7188C85.5959 16.8229 88.0126 18.9375 90.4292 21.0625C90.5334 21.1458 90.648 21.1667 90.773 21.125C90.8772 21.0625 90.9292 20.9688 90.9292 20.8438C90.9292 18.1146 90.9292 14.0312 90.9292 8.59375C90.9292 8.51042 90.9605 8.4375 91.023 8.375C91.0855 8.33333 91.1584 8.3125 91.2417 8.3125C92.1167 8.3125 93.4188 8.3125 95.148 8.3125C95.2313 8.3125 95.3042 8.33333 95.3667 8.375C95.4084 8.4375 95.4292 8.51042 95.4292 8.59375C95.4292 11.6979 95.4292 14.8021 95.4292 17.9062C95.4292 21.0104 95.4292 24.1042 95.4292 27.1875ZM125.093 12.5C125.093 12.5833 125.072 12.6562 125.03 12.7188C124.968 12.7812 124.895 12.8125 124.812 12.8125C122.77 12.8125 119.708 12.8125 115.624 12.8125C115.541 12.8125 115.468 12.8333 115.405 12.875C115.343 12.9375 115.312 13.0104 115.312 13.0938C115.312 16.2396 115.312 20.9375 115.312 27.1875C115.312 27.2708 115.291 27.3438 115.249 27.4062C115.187 27.4688 115.114 27.5 115.03 27.5C114.155 27.5 112.853 27.5 111.124 27.5C111.041 27.5 110.968 27.4688 110.905 27.4062C110.843 27.3438 110.812 27.2708 110.812 27.1875C110.812 24.0625 110.812 19.3646 110.812 13.0938C110.812 13.0104 110.791 12.9375 110.749 12.875C110.687 12.8333 110.614 12.8125 110.53 12.8125C108.489 12.8125 105.426 12.8125 101.343 12.8125C101.26 12.8125 101.187 12.7812 101.124 12.7188C101.062 12.6562 101.03 12.5833 101.03 12.5C101.03 11.625 101.03 10.3229 101.03 8.59375C101.03 8.51042 101.062 8.4375 101.124 8.375C101.187 8.33333 101.26 8.3125 101.343 8.3125C106.551 8.3125 114.374 8.3125 124.812 8.3125C124.895 8.3125 124.968 8.33333 125.03 8.375C125.072 8.4375 125.093 8.51042 125.093 8.59375C125.093 9.23958 125.093 9.89583 125.093 10.5625C125.093 11.2083 125.093 11.8542 125.093 12.5Z" fill="#EAEAEA"/>
</svg>
